<svg xmlns="http://www.w3.org/2000/svg" version="1.1" xmlns:xlink="http://www.w3.org/1999/xlink" width="1000" height="1000"><style>
    #light-icon {
      display: inline;
    }
    #dark-icon {
      display: none;
    }

    @media (prefers-color-scheme: dark) {
      #light-icon {
        display: none;
      }
      #dark-icon {
        display: inline;
      }
    }
  </style><g id="light-icon"><svg xmlns="http://www.w3.org/2000/svg" version="1.1" xmlns:xlink="http://www.w3.org/1999/xlink" width="1000" height="1000"><g><g transform="matrix(2.0846362309776945,0,0,2.0846362309776945,0,0)"><svg xmlns="http://www.w3.org/2000/svg" version="1.1" xmlns:xlink="http://www.w3.org/1999/xlink" width="479.7" height="479.7"><svg id="Layer_2" xmlns="http://www.w3.org/2000/svg" viewBox="0 0 479.7 479.7"><g id="Layer_1-2"><path d="M332.1,107.9c.2-6-1-14.1-3.7-24.2-1.7-6.6-3.5-11.3-5.6-14.1-2.1-2.8-4.3-4.2-6.8-4.2s-6.5,1.7-10.2,5.1c-3.7,3.4-7.8,8-12.1,13.8-4.1,5.4-8.4,11.5-12.7,18.5-4.3,6.9-8.3,14.2-11.8,21.9-3.5,7.7-6.4,15.5-8.7,23.4-2.3,8-3.4,15.7-3.4,23.1s.6,10.9,1.9,16c1.2,5.1,3.9,9,8.1,11.9,2.3,2.1,4.1,3.1,5.6,3.1s3.8.3,7.1.9c2.9.6,4.3,2.1,4.2,4.3-.1,2.3-1.2,3.4-3.3,3.4-6,0-11.1-.6-15.2-1.9-4.1-1.2-8.2-4.9-12.1-10.9-2.3-3.7-3.8-8.1-4.5-13-.7-5-1.1-10.2-1.1-15.8s.7-12.6,2.2-19.1c1.4-6.5,3.3-12.8,5.6-18.8,2.3-6,4.8-11.7,7.4-17.2,2.7-5.5,5.2-10.3,7.4-14.4,2.3-4.1,5.1-8.9,8.5-14.3,3.4-5.4,7.2-10.5,11.5-15.4,4-4.5,8.2-8.4,12.7-11.6-4-.2-7.6-.3-10.8-.3-5.4,0-10.2.2-14.4.6-4.2.4-9.3.6-15,.6-.2.6-.8,3.2-1.7,7.6-.9,4.4-1.9,9.3-2.9,14.6-1,5.3-2,10.3-2.9,15.2-.9,4.9-1.5,8-1.7,9.5l-16.8,94.6c-2.9,17.4-5.3,34-7.1,49.8-1.9,15.8-3.9,32.1-6.2,48.9-.6,4.5-1.1,8.8-1.4,12.7-.3,3.9-.8,8.3-1.4,13l-6.2,61.1c.4-1.3.8-2.7,1.3-4.1,2.5-6.8,5.6-13.6,9.3-20.5s7.8-13.3,12.1-19.4c4.3-6.1,8.4-11.3,12.1-15.7,7.9-9.3,15.8-17.5,23.7-24.7,8-7.1,16.9-14.2,26.8-21.2l18-10.5c.6-.8,1.4-3.6,2.3-8.4.9-4.8,1.9-10,2.8-15.7.9-5.7,1.8-11.1,2.5-16.3.7-5.2,1.2-8.7,1.4-10.5.4-4.1.8-8.4,1.2-12.9.4-4.4.9-9,1.6-13.8l3.7-55.5c0-4.8-.3-9.3-.9-13.6-.4-4.5-.5-9.8-.3-15.8Z"></path><path d="M305.8,288.8l-17.7,13.3c-1.7,1.2-3.1,2.4-4.3,3.4-1.2,1-2.6,2.4-4,4-1.4,1.4-2.8,2.6-4,3.4-1.2.8-2.6,2.1-4,3.7l-21.1,23.9c-4.6,5.6-8.7,11.7-12.6,18.3-3.8,6.6-7.3,13.3-10.4,20.2-1.2,2.7-2.6,6.4-4,11.2-1.4,4.8-2.2,9.4-2.3,14-.1,4.5.7,8.5,2.3,11.8,1.7,3.3,5,5,9.9,5s7.8-1.3,12.3-4c4.4-2.7,8.8-6,13-9.9,4.2-3.9,8.1-8.1,11.6-12.4,3.5-4.3,6.1-8.3,7.8-11.8,3.3-4.3,7.1-11.2,11.3-20.6,4.2-9.4,8.3-19.3,12.1-29.6,3.8-10.3,7-20.2,9.6-29.5,2.6-9.3,3.9-15.9,3.9-19.9-1.7,1-3.2,2-4.7,2.8-1.4.8-3,1.8-4.7,2.8Z"></path><path d="M347.4,0h-215.1C59.2,0,0,59.2,0,132.3v215.1c0,73.1,59.2,132.3,132.3,132.3h215.1c73.1,0,132.3-59.2,132.3-132.3v-215.1C479.7,59.2,420.5,0,347.4,0ZM406,246.3c-3.1,1.2-6.6,2.5-10.5,3.9-3.9,1.3-7.7,2.5-11.2,3.6-3.5,1-5.8,1.7-6.8,1.9-5.4,1.7-11.1,3.5-17.1,5.6-6,2.1-11.4,4.3-16.1,6.8-2.1.8-3.7,1.4-5,1.9-1.2.4-2.2.9-2.9,1.4-.7.5-1.4,1.4-2,2.6-.6,1.2-1.2,3.1-1.9,5.6-5,21.3-11.2,42.1-18.8,62.3-7.6,20.3-17.9,39.2-31.2,56.8-2.5,3.1-5.5,6.5-9.1,10.2-3.6,3.7-7.6,7.1-11.8,10.2-4.2,3.1-8.6,5.7-13.2,7.9-4.6,2.2-9,3.3-13.3,3.3-6.6,0-12.1-1.8-16.4-5.4-4.3-3.6-6.5-8.5-6.5-14.7h0c0,0-1.6,16.1-1.6,16.1-.2,1.7-.4,3.6-.5,5.7-.1,2.2-.4,4.3-.8,6.5-.4,2.2-1.1,4-2,5.4-.9,1.4-2.2,2.2-3.9,2.2s-2.2-.4-2.8-1.1c-.6-.7-1.4-1.4-2.5-2l5.3-88.1c0-6.6-.4-13.7-1.1-21.2-.7-7.6-1.7-15.1-2.8-22.6-1.1-7.6-2.5-14.9-4-22s-3.2-13.8-4.8-20c-2.5-8.7-5.2-16.6-8.1-23.7-2.9-7.1-6.1-13.9-9.6-20.3-3.5-6.4-7.3-12.6-11.5-18.6-4.1-6-8.7-12.1-13.6-18.3-3.3-4.1-7.1-8.2-11.5-12.3-4.3-4-8.9-8-13.8-11.8-4.9-3.8-9.7-7.5-14.4-11-4.8-3.5-9.2-6.8-13.3-9.9l-28.2-20.2c-2.3-1.7-4.3-3.6-6.2-5.9-1.9-2.3-2.8-5.4-2.8-9.3s.6-3.6,1.9-5.3c1.2-1.7,2.7-3.3,4.5-4.8,1.8-1.6,3.6-2.9,5.4-4,1.9-1.1,3.4-2.1,4.7-2.9l23-9.6c24-8.5,48.3-15.5,73-21.1,24.7-5.6,49.8-9.6,75.2-12.1,2.5-.2,4.1-.6,5-1.1.8-.5,1.4-1.1,1.9-1.7.4-.6.8-1.1,1.2-1.6.4-.4,1.2-.6,2.5-.6,2.1,0,3.4.2,3.9.5.5.3.9.6,1.1.9.2.3.6.6,1.2.9.6.3,2,.6,4,.8h5c3.3,0,6.9,0,10.9-.2,3.9-.1,7.6-.2,11.2-.2h5.6c2.1.2,6.1.6,12.1,1.2,6,.6,12.9,1.4,20.8,2.5,7.9,1,16.1,2.2,24.8,3.6,8.7,1.3,16.6,2.8,23.7,4.5,7.1,1.7,13,3.5,17.7,5.4,4.7,2,7,4,7,6,0,3.5-1.1,5.3-3.4,5.3s-3.3-.3-5.4-.8c-2.2-.5-4.9-1.3-8.2-2.3-6.2-1.4-13.5-2.9-22-4.5-8.5-1.6-17.2-2.9-26.1-4.2-1.6-.2-3.1-.4-4.6-.6.6.8,1.1,1.7,1.6,2.6,4.1,7.6,7.1,17.2,9,28.8,1.9,11.7,2.9,24.6,3.1,38.6.2,14.1-.1,27.7-.9,40.9-.8,13.2-1.8,25.2-2.9,35.8-1.1,10.7-2.1,18.4-2.9,23.1l-4.7,29.2c2.3-1.2,5.1-2.4,8.4-3.6,3.3-1.1,6.3-2.2,9-3.3,2.7-1,5.4-2,8.2-2.9,2.8-.9,5.7-2,8.8-3.3,6.6-2.3,12.8-4.3,18.6-6.2,5.8-1.9,12.2-2.8,19.2-2.8.4,1,.7,1.8.9,2.3.2.5.3,1.3.3,2.3s-1.6,1.6-4.7,2.8Z"></path><path d="M226.4,168.4c2.6-16.8,5.6-33.8,9-51,3.4-17.3,7.4-35.9,11.9-56-4.6,0-11.3.8-20.2,2.3-8.9,1.6-18.2,3.3-27.9,5.3-9.7,2-19,4-27.9,6-8.9,2.1-15.5,3.6-19.9,4.7-7.7,2.1-15.1,4.1-22.3,6-7.2,2-14.6,4.1-22,6.4-2.7.8-6,1.9-9.9,3.1-3.9,1.2-7.9,2.6-11.8,4.2-3.9,1.6-7.5,3.2-10.7,5-3.2,1.8-5.4,3.6-6.7,5.4.8,2.7,2.3,4.8,4.5,6.2,2.2,1.4,4.4,3,6.7,4.7l36.3,26.4c16.8,12.6,31.4,26.5,44,41.7,12.6,15.2,22.8,32.6,30.7,52.3,3.9,9.5,6.8,17.6,8.7,24.2,1.9,6.6,3.3,12.3,4.2,17.1.9,4.8,1.7,8.9,2.2,12.4.5,3.5,1.4,7,2.6,10.5l.6,1.6,3.4-32.3c2.5-19.6,4.9-38,7.1-55.2,2.3-17.2,4.7-34.1,7.3-50.9Z"></path></g></svg></svg></g></g></svg></g><g id="dark-icon"><svg xmlns="http://www.w3.org/2000/svg" version="1.1" xmlns:xlink="http://www.w3.org/1999/xlink" width="1000" height="1000"><g><g transform="matrix(2.0846362309776945,0,0,2.0846362309776945,0,0)"><svg xmlns="http://www.w3.org/2000/svg" version="1.1" xmlns:xlink="http://www.w3.org/1999/xlink" width="479.7" height="479.7"><svg id="Layer_2" xmlns="http://www.w3.org/2000/svg" viewBox="0 0 479.7 479.7"><defs><style>.cls-1{fill:#f1f1f1;stroke:#f1f1f1;stroke-miterlimit:10;stroke-width:3px;}</style></defs><g id="Layer_1-2"><rect width="479.7" height="479.7" rx="132.3" ry="132.3"></rect><path class="cls-1" d="M57.5,107.6c0-1.9.6-3.6,1.9-5.3,1.2-1.7,2.7-3.3,4.5-4.8,1.8-1.6,3.6-2.9,5.4-4,1.9-1.1,3.4-2.1,4.7-2.9l23-9.6c24-8.5,48.3-15.5,73-21.1,24.7-5.6,49.8-9.6,75.2-12.1,2.5-.2,4.1-.6,5-1.1.8-.5,1.4-1.1,1.9-1.7.4-.6.8-1.1,1.2-1.6.4-.4,1.2-.6,2.5-.6,2.1,0,3.4.2,3.9.5.5.3.9.6,1.1.9.2.3.6.6,1.2.9.6.3,2,.6,4,.8h5c3.3,0,6.9,0,10.9-.2,3.9-.1,7.6-.2,11.2-.2h5.6c2.1.2,6.1.6,12.1,1.2,6,.6,12.9,1.4,20.8,2.5,7.9,1,16.1,2.2,24.8,3.6,8.7,1.3,16.6,2.8,23.7,4.5,7.1,1.7,13,3.5,17.7,5.4,4.7,2,7,4,7,6,0,3.5-1.1,5.3-3.4,5.3s-3.3-.3-5.4-.8c-2.2-.5-4.9-1.3-8.2-2.3-6.2-1.4-13.5-2.9-22-4.5-8.5-1.6-17.2-2.9-26.1-4.2-8.9-1.2-17.5-2.2-25.9-2.9-8.4-.7-15.5-1.1-21.2-1.1s-10.2.2-14.4.6c-4.2.4-9.3.6-15,.6-.2.6-.8,3.2-1.7,7.6-.9,4.4-1.9,9.3-2.9,14.6-1,5.3-2,10.3-2.9,15.2-.9,4.9-1.5,8-1.7,9.5l-16.8,94.6c-2.9,17.4-5.3,34-7.1,49.8-1.9,15.8-3.9,32.1-6.2,48.9-.6,4.5-1.1,8.8-1.4,12.7-.3,3.9-.8,8.3-1.4,13l-10.2,100.8c-.2,1.7-.4,3.6-.5,5.7-.1,2.2-.4,4.3-.8,6.5-.4,2.2-1.1,4-2,5.4-.9,1.4-2.2,2.2-3.9,2.2s-2.2-.4-2.8-1.1c-.6-.7-1.4-1.4-2.5-2l5.3-88.1c0-6.6-.4-13.7-1.1-21.2-.7-7.6-1.7-15.1-2.8-22.6-1.1-7.6-2.5-14.9-4-22s-3.2-13.8-4.8-20c-2.5-8.7-5.2-16.6-8.1-23.7-2.9-7.1-6.1-13.9-9.6-20.3-3.5-6.4-7.3-12.6-11.5-18.6-4.1-6-8.7-12.1-13.6-18.3-3.3-4.1-7.1-8.2-11.5-12.3-4.3-4-8.9-8-13.8-11.8-4.9-3.8-9.7-7.5-14.4-11-4.8-3.5-9.2-6.8-13.3-9.9l-28.2-20.2c-2.3-1.7-4.3-3.6-6.2-5.9-1.9-2.3-2.8-5.4-2.8-9.3ZM212,274.5c2.5-19.6,4.9-38,7.1-55.2,2.3-17.2,4.7-34.1,7.3-50.9,2.6-16.8,5.6-33.8,9-51,3.4-17.3,7.4-35.9,11.9-56-4.6,0-11.3.8-20.2,2.3-8.9,1.6-18.2,3.3-27.9,5.3-9.7,2-19,4-27.9,6-8.9,2.1-15.5,3.6-19.9,4.7-7.7,2.1-15.1,4.1-22.3,6-7.2,2-14.6,4.1-22,6.4-2.7.8-6,1.9-9.9,3.1-3.9,1.2-7.9,2.6-11.8,4.2-3.9,1.6-7.5,3.2-10.7,5-3.2,1.8-5.4,3.6-6.7,5.4.8,2.7,2.3,4.8,4.5,6.2,2.2,1.4,4.4,3,6.7,4.7l36.3,26.4c16.8,12.6,31.4,26.5,44,41.7,12.6,15.2,22.8,32.6,30.7,52.3,3.9,9.5,6.8,17.6,8.7,24.2,1.9,6.6,3.3,12.3,4.2,17.1.9,4.8,1.7,8.9,2.2,12.4.5,3.5,1.4,7,2.6,10.5l.6,1.6,3.4-32.3Z"></path><path class="cls-1" d="M247.8,169.4c0-6.2.7-12.6,2.2-19.1,1.4-6.5,3.3-12.8,5.6-18.8,2.3-6,4.8-11.7,7.4-17.2,2.7-5.5,5.2-10.3,7.4-14.4,2.3-4.1,5.1-8.9,8.5-14.3,3.4-5.4,7.2-10.5,11.5-15.4,4.2-4.9,8.8-8.9,13.6-12.3,4.9-3.3,9.9-5,15-5,7.4,0,13.2,3.8,17.4,11.3,4.1,7.6,7.1,17.2,9,28.8,1.9,11.7,2.9,24.6,3.1,38.6.2,14.1-.1,27.7-.9,40.9-.8,13.2-1.8,25.2-2.9,35.8-1.1,10.7-2.1,18.4-2.9,23.1l-4.7,29.2c2.3-1.2,5.1-2.4,8.4-3.6,3.3-1.1,6.3-2.2,9-3.3,2.7-1,5.4-2,8.2-2.9,2.8-.9,5.7-2,8.8-3.3,6.6-2.3,12.8-4.3,18.6-6.2,5.8-1.9,12.2-2.8,19.2-2.8.4,1,.7,1.8.9,2.3.2.5.3,1.3.3,2.3s-1.6,1.6-4.7,2.8c-3.1,1.2-6.6,2.5-10.5,3.9-3.9,1.3-7.7,2.5-11.2,3.6-3.5,1-5.8,1.7-6.8,1.9-5.4,1.7-11.1,3.5-17.1,5.6-6,2.1-11.4,4.3-16.1,6.8-2.1.8-3.7,1.4-5,1.9-1.2.4-2.2.9-2.9,1.4-.7.5-1.4,1.4-2,2.6-.6,1.2-1.2,3.1-1.9,5.6-5,21.3-11.2,42.1-18.8,62.3-7.6,20.3-17.9,39.2-31.2,56.8-2.5,3.1-5.5,6.5-9.1,10.2-3.6,3.7-7.6,7.1-11.8,10.2-4.2,3.1-8.6,5.7-13.2,7.9-4.6,2.2-9,3.3-13.3,3.3-6.6,0-12.1-1.8-16.4-5.4-4.3-3.6-6.5-8.5-6.5-14.7v-8.7c0-5.8,1.2-12.1,3.7-18.9s5.6-13.6,9.3-20.5,7.8-13.3,12.1-19.4c4.3-6.1,8.4-11.3,12.1-15.7,7.9-9.3,15.8-17.5,23.7-24.7,8-7.1,16.9-14.2,26.8-21.2l18-10.5c.6-.8,1.4-3.6,2.3-8.4.9-4.8,1.9-10,2.8-15.7.9-5.7,1.8-11.1,2.5-16.3.7-5.2,1.2-8.7,1.4-10.5.4-4.1.8-8.4,1.2-12.9.4-4.4.9-9,1.6-13.8l3.7-55.5c0-4.8-.3-9.3-.9-13.6-.4-4.5-.5-9.8-.3-15.8.2-6-1-14.1-3.7-24.2-1.7-6.6-3.5-11.3-5.6-14.1-2.1-2.8-4.3-4.2-6.8-4.2s-6.5,1.7-10.2,5.1c-3.7,3.4-7.8,8-12.1,13.8-4.1,5.4-8.4,11.5-12.7,18.5-4.3,6.9-8.3,14.2-11.8,21.9-3.5,7.7-6.4,15.5-8.7,23.4-2.3,8-3.4,15.7-3.4,23.1s.6,10.9,1.9,16c1.2,5.1,3.9,9,8.1,11.9,2.3,2.1,4.1,3.1,5.6,3.1s3.8.3,7.1.9c2.9.6,4.3,2.1,4.2,4.3-.1,2.3-1.2,3.4-3.3,3.4-6,0-11.1-.6-15.2-1.9-4.1-1.2-8.2-4.9-12.1-10.9-2.3-3.7-3.8-8.1-4.5-13-.7-5-1.1-10.2-1.1-15.8ZM233.5,420.9c3.7,0,7.8-1.3,12.3-4,4.4-2.7,8.8-6,13-9.9,4.2-3.9,8.1-8.1,11.6-12.4,3.5-4.3,6.1-8.3,7.8-11.8,3.3-4.3,7.1-11.2,11.3-20.6,4.2-9.4,8.3-19.3,12.1-29.6,3.8-10.3,7-20.2,9.6-29.5,2.6-9.3,3.9-15.9,3.9-19.9-1.7,1-3.2,2-4.7,2.8-1.4.8-3,1.8-4.7,2.8l-17.7,13.3c-1.7,1.2-3.1,2.4-4.3,3.4-1.2,1-2.6,2.4-4,4-1.4,1.4-2.8,2.6-4,3.4-1.2.8-2.6,2.1-4,3.7l-21.1,23.9c-4.6,5.6-8.7,11.7-12.6,18.3-3.8,6.6-7.3,13.3-10.4,20.2-1.2,2.7-2.6,6.4-4,11.2-1.4,4.8-2.2,9.4-2.3,14-.1,4.5.7,8.5,2.3,11.8,1.7,3.3,5,5,9.9,5Z"></path></g></svg></svg></g></g></svg></g></svg>